<svg width="1788" height="308" viewBox="0 0 1788 308" fill="none" xmlns="http://www.w3.org/2000/svg">
<g clip-path="url(#clip0_1349_48)">
<path d="M470.191 85.9902L465.396 118.975H412.996L393.581 248.111H352.41L371.475 118.975H319.309L324.338 85.9902H470.191Z" fill="white"/>
<path d="M560.903 181.322C560.903 186.936 560.358 192.745 559.266 198.75H483.941C483.941 215.203 492.012 223.43 508.153 223.43C516.184 223.43 523.358 222.495 529.674 220.623C536.068 218.752 543.671 216.022 552.482 212.436L546.517 241.678C538.173 245.031 531.467 247.293 526.399 248.462C521.409 249.632 515.093 250.217 507.451 250.217C491.232 250.217 478.483 247.215 469.204 241.211C459.925 235.205 453.609 228.032 450.256 219.687C446.903 211.344 445.227 203.078 445.227 194.89C445.227 182.647 447.995 171.34 453.531 160.969C459.146 150.519 466.865 142.254 476.689 136.171C486.593 130.011 497.743 126.93 510.141 126.93C519.42 126.93 527.881 128.919 535.522 132.895C543.241 136.872 549.402 142.955 554.003 151.143C558.603 159.33 560.903 169.39 560.903 181.322ZM523.242 177.695C523.242 177.149 523.242 176.643 523.242 176.175C523.319 175.629 523.358 174.848 523.358 173.836C523.358 160.423 518.718 153.716 509.44 153.716C503.825 153.716 499.381 155.939 496.106 160.384C492.909 164.75 489.907 170.521 487.099 177.695H523.242Z" fill="white"/>
<path d="M682.261 131.258L676.998 168.103C669.356 165.608 664.561 164.166 662.611 163.776C658.166 162.684 653.527 162.138 648.693 162.138C639.725 162.138 632.395 163.854 626.703 167.285C621.011 170.716 616.878 174.927 614.305 179.918C611.732 184.83 610.446 189.275 610.446 193.252C610.446 198.477 612.239 203.546 615.826 208.458C619.412 213.372 626.625 215.828 637.464 215.828C643 215.828 648.498 215.048 653.956 213.488C659.414 211.928 666.704 209.004 675.828 204.715L669.629 244.719C664.716 246.279 660.74 247.41 657.699 248.111C654.735 248.813 651.46 249.32 647.874 249.632C644.365 250.022 640.739 250.217 636.996 250.217C611.42 250.217 593.953 244.095 584.597 231.852C575.317 219.532 570.678 206.509 570.678 192.784C570.678 184.051 572.939 174.654 577.462 164.595C581.984 154.457 589.899 145.645 601.205 138.159C612.59 130.673 627.873 126.93 647.055 126.93C658.049 126.93 669.785 128.373 682.261 131.258Z" fill="white"/>
<path d="M813.208 162.372C813.208 166.816 812.623 172.626 811.453 179.8L801.394 248.111H762.446L773.44 174.77C773.596 173.523 773.674 172.548 773.674 171.846C773.674 168.415 772.816 165.374 771.101 162.722C769.464 160.071 766.968 158.746 763.615 158.746C759.795 158.746 755.817 160.188 751.685 163.073C747.552 165.881 742.328 170.286 736.012 176.292L725.486 248.111H686.42L710.631 85.9902H749.229L740.808 142.955C747.981 137.652 754.414 133.675 760.106 131.024C765.799 128.294 772.31 126.929 779.639 126.929C788.451 126.929 795.313 128.919 800.225 132.895C805.215 136.794 808.607 141.473 810.4 146.931C812.272 152.312 813.208 157.459 813.208 162.372Z" fill="white"/>
<path d="M1004.51 157.81C1004.51 170.989 1002.32 183.192 997.962 194.422C993.667 205.651 987.396 215.476 979.132 223.898C970.859 232.242 960.995 238.715 949.54 243.316C938.076 247.916 925.244 250.217 911.06 250.217C898.193 250.217 885.514 247.76 873.041 242.848C860.645 237.934 850.391 229.942 842.282 218.868C834.171 207.717 830.117 193.603 830.117 176.525C830.117 161.709 832.691 148.453 837.836 136.755C842.983 125.058 850.04 115.272 859.011 107.395C867.977 99.5199 878.114 93.632 889.415 89.7332C900.725 85.7557 912.728 83.7676 925.441 83.7676C940.412 83.7676 953.903 86.7695 965.914 92.7747C977.994 98.7011 987.43 107.279 994.214 118.508C1001.08 129.737 1004.51 142.838 1004.51 157.81ZM961.115 160.617C961.115 152.507 959.515 145.411 956.324 139.329C953.125 133.246 948.676 128.528 942.987 125.175C937.375 121.822 930.865 120.146 923.456 120.146C913.079 120.146 904.079 122.913 896.439 128.451C888.868 133.909 883.136 140.849 879.244 149.271C875.342 157.615 873.392 166.037 873.392 174.537C873.392 185.454 876.788 194.734 883.572 202.376C890.434 210.017 899.827 213.838 911.761 213.838C919.324 213.838 926.142 212.396 932.225 209.511C938.307 206.625 943.535 202.649 947.898 197.58C952.346 192.433 955.657 186.702 957.839 180.385C960.02 173.991 961.115 167.401 961.115 160.617Z" fill="white"/>
<path d="M1138.26 163.073C1138.26 165.413 1137.87 169.82 1137.09 176.292L1126.45 248.111H1087.74L1098.5 173.836C1098.65 172.9 1098.73 171.535 1098.73 169.741C1098.73 162.255 1095.45 158.512 1088.9 158.512C1084.85 158.512 1080.88 159.838 1076.98 162.489C1073.15 165.141 1067.85 169.663 1061.07 176.057L1050.54 248.111H1011.48L1029.26 129.035H1068.09L1066.09 142.955C1073.27 137.808 1079.55 133.87 1084.93 131.141C1090.39 128.334 1097.13 126.93 1105.16 126.93C1117.33 126.93 1125.87 130.712 1130.78 138.276C1135.77 145.762 1138.26 154.029 1138.26 163.073Z" fill="white"/>
<path d="M1266.05 181.322C1266.05 186.936 1265.5 192.745 1264.42 198.75H1189.09C1189.09 215.203 1197.16 223.43 1213.3 223.43C1221.33 223.43 1228.51 222.495 1234.82 220.623C1241.21 218.752 1248.82 216.022 1257.63 212.436L1251.67 241.678C1243.32 245.031 1236.62 247.293 1231.55 248.462C1226.56 249.632 1220.24 250.217 1212.6 250.217C1196.38 250.217 1183.63 247.215 1174.36 241.211C1165.07 235.205 1158.76 228.032 1155.41 219.687C1152.05 211.344 1150.38 203.078 1150.38 194.89C1150.38 182.647 1153.14 171.34 1158.68 160.969C1164.3 150.519 1172.01 142.254 1181.84 136.171C1191.74 130.011 1202.89 126.93 1215.29 126.93C1224.57 126.93 1233.03 128.919 1240.67 132.895C1248.39 136.872 1254.55 142.955 1259.15 151.143C1263.75 159.33 1266.05 169.39 1266.05 181.322ZM1228.39 177.695C1228.39 177.149 1228.39 176.643 1228.39 176.175C1228.47 175.629 1228.51 174.848 1228.51 173.836C1228.51 160.423 1223.86 153.716 1214.59 153.716C1208.97 153.716 1204.53 155.939 1201.25 160.384C1198.05 164.75 1195.05 170.521 1192.25 177.695H1228.39Z" fill="white"/>
<path d="M1483.5 135.234C1483.5 145.138 1481.47 154.223 1477.42 162.489C1473.44 170.754 1467.08 177.461 1458.35 182.608C1449.62 187.754 1438.66 190.328 1425.49 190.328H1391.92L1383.61 248.111H1341.86L1365.6 85.9902H1426.42C1446.38 85.9902 1460.89 90.6299 1469.93 99.9093C1478.98 109.189 1483.5 120.964 1483.5 135.234ZM1440.57 137.457C1440.57 132.154 1439.33 127.397 1436.83 123.186C1434.41 118.975 1430.71 115.662 1425.72 113.244C1420.73 110.827 1414.76 109.618 1407.82 109.618H1403.96L1395.55 166.7H1407.12C1417.73 166.7 1425.95 164.321 1431.8 159.565C1437.65 154.73 1440.57 147.361 1440.57 137.457Z" fill="white"/>
<path d="M1553.98 85.9902L1530 248.111H1490.46L1514.44 85.9902H1553.98Z" fill="white"/>
<path d="M1686.09 129.035L1668.31 248.111H1629.48L1631.48 234.191C1629.91 235.284 1627.5 236.96 1624.22 239.221C1621.02 241.483 1618.02 243.316 1615.21 244.719C1612.48 246.123 1609.05 247.37 1604.92 248.462C1600.87 249.632 1596.69 250.217 1592.41 250.217C1584.06 250.217 1577.43 248.306 1572.52 244.486C1567.61 240.586 1564.18 235.868 1562.23 230.332C1560.28 224.795 1559.31 219.376 1559.31 214.073C1559.31 211.577 1559.7 207.211 1560.48 200.972L1571.12 129.035H1609.83L1599.07 203.312C1598.92 204.247 1598.84 205.613 1598.84 207.406C1598.84 214.892 1602.12 218.635 1608.67 218.635C1612.72 218.635 1616.69 217.309 1620.59 214.657C1624.5 212.006 1629.8 207.523 1636.5 201.206L1647.03 129.035H1686.09Z" fill="white"/>
<path d="M1779.85 137.925L1776.92 165.998C1771.16 163.113 1764.76 160.501 1757.74 158.161C1750.8 155.822 1745.3 154.652 1741.25 154.652C1735.95 154.652 1733.3 156.485 1733.3 160.15C1733.3 162.255 1734.08 164.166 1735.64 165.881C1737.28 167.597 1739.96 169.78 1743.7 172.432C1747.45 175.005 1750.8 177.539 1753.76 180.035C1761.64 186.585 1766.9 192.472 1769.56 197.697C1772.29 202.922 1773.65 207.834 1773.65 212.436C1773.65 218.284 1771.93 224.171 1768.5 230.098C1765.07 235.946 1759.85 240.781 1752.83 244.602C1745.89 248.345 1737.39 250.217 1727.33 250.217C1723.36 250.217 1717.66 249.515 1710.25 248.111C1702.93 246.63 1695.28 243.823 1687.33 239.689L1692.36 212.436C1701.01 215.944 1707.69 218.518 1712.36 220.155C1717.04 221.715 1722.03 222.495 1727.33 222.495C1730.53 222.495 1732.98 221.754 1734.7 220.273C1736.49 218.791 1737.39 217.115 1737.39 215.243C1737.39 212.904 1736.14 210.642 1733.65 208.458C1731.23 206.197 1726.44 202.415 1719.26 197.113C1712.71 192.121 1707.22 186.897 1702.77 181.438C1698.4 175.902 1696.22 169.702 1696.22 162.84C1696.22 153.404 1700.04 145.061 1707.69 137.808C1715.4 130.556 1726.59 126.93 1741.25 126.93C1749.05 126.93 1755.79 127.905 1761.49 129.854C1767.26 131.726 1773.38 134.416 1779.85 137.925Z" fill="white"/>
<path d="M58.283 2.187C61.8237 1.41841 66.1076 0.644442 67.8027 0.467282C69.4978 0.290122 72.2715 0.0834424 73.9666 0.00738889C75.6617 -0.0686647 80.8437 0.451177 85.4825 1.1616C90.1212 1.87203 96.2628 3.32512 99.1313 4.39075C101.999 5.4573 114.142 11.6176 126.114 18.0813C138.087 24.5449 147.894 30.0879 147.908 30.4002C147.921 30.7124 124.059 44.377 94.8795 60.7661C65.7008 77.1552 32.6254 95.723 21.3799 102.028C10.1343 108.334 0.723814 113.492 0.466693 113.492C0.210451 113.492 0 103.461 0 91.2022C0 75.4864 0.372472 66.9748 1.26359 62.3462C1.95835 58.735 3.34874 53.3915 4.35346 50.4711C5.35817 47.5507 7.60798 42.5177 9.35321 39.2868C11.0976 36.0558 14.5212 30.9075 16.9621 27.8457C19.4021 24.7848 23.2282 20.7127 25.4647 18.7962C27.7013 16.8796 31.8479 13.8062 34.6789 11.9666C37.5098 10.1261 42.5308 7.48747 45.8364 6.1024C49.1419 4.71734 54.7432 2.95559 58.283 2.187Z" fill="#EC5315"/>
<path d="M148.463 82.0839C148.463 75.597 148.725 61.7696 149.044 51.3556C149.362 40.9425 149.88 32.4219 150.193 32.4219C150.505 32.4219 159.655 37.3026 170.526 43.2679C181.396 49.2332 192.078 55.4383 194.263 57.0569C196.45 58.6755 200.478 62.3878 203.218 65.3056C205.957 68.2234 209.803 73.1337 211.763 76.2161C213.725 79.2995 216.495 84.8997 217.919 88.6619C219.343 92.4238 220.94 97.8908 221.469 100.811C221.998 103.731 222.43 110.209 222.43 115.207C222.43 121.377 221.86 126.566 220.656 131.372C219.681 135.265 218.254 139.858 217.488 141.581C216.719 143.304 215.33 146.253 214.398 148.134C213.467 150.016 210.707 154.244 208.265 157.529C205.825 160.814 201.478 165.591 198.607 168.143C195.736 170.695 188.53 175.576 182.592 178.988C176.655 182.4 150.688 197.122 124.889 211.704C99.0886 226.284 77.7741 238.214 77.5223 238.214C77.2705 238.214 77.1261 219.902 77.2018 197.521L77.3391 156.83L84.9437 152.487C89.1263 150.098 94.5296 147.017 96.9507 145.638C99.3726 144.259 101.75 142.826 102.234 142.454C102.719 142.082 110.247 137.565 118.965 132.418C127.682 127.271 137.626 121.407 141.061 119.387L147.308 115.717L147.886 104.798C148.204 98.7925 148.463 88.5712 148.463 82.0839Z" fill="#EC5315"/>
<path d="M1.48034 279.94C0.23574 275.644 0 268.935 0 237.764C0 217.377 0.353603 200.838 0.785174 201.011C1.21675 201.183 18.5826 211.641 39.376 224.252L77.1825 247.179L76.8762 263.293C76.5755 279.072 76.5096 279.533 73.6835 285.578C71.9999 289.18 68.8118 293.763 66.0322 296.582C63.2553 299.397 58.6927 302.657 55.0954 304.396C50.246 306.742 47.3001 307.485 41.3519 307.861C35.7758 308.214 32.3279 307.912 28.2711 306.717C25.2408 305.824 21.0867 304.096 19.0383 302.876C16.9899 301.657 13.3936 298.628 11.0473 296.147C8.70012 293.665 5.92133 290.153 4.87072 288.343C3.8201 286.532 2.29522 282.751 1.48034 279.94Z" fill="#EC5315"/>
</g>
<defs>
<clipPath id="clip0_1349_48">
<rect width="1788" height="308" fill="white"/>
</clipPath>
</defs>
</svg>
