<svg width="353" height="353" viewBox="0 0 353 353" fill="none" xmlns="http://www.w3.org/2000/svg">
<path d="M118.673 11.3892C122.541 10.5496 127.221 9.70404 129.073 9.51049C130.925 9.31695 133.955 9.09116 135.807 9.00807C137.658 8.92499 143.32 9.4929 148.387 10.269C153.455 11.0451 160.165 12.6326 163.298 13.7968C166.431 14.962 179.697 21.6919 192.776 28.7534C205.856 35.8147 216.571 41.8703 216.586 42.2114C216.6 42.5525 190.531 57.4807 158.653 75.3854C126.776 93.2901 90.6425 113.575 78.357 120.463C66.0714 127.352 55.7907 132.987 55.5099 132.987C55.2299 132.987 55 122.029 55 108.636C55 91.467 55.4069 82.1682 56.3804 77.1117C57.1394 73.1665 58.6584 67.3289 59.756 64.1384C60.8537 60.9479 63.3115 55.4495 65.2181 51.9198C67.1238 48.3901 70.8641 42.7656 73.5307 39.4207C76.1963 36.0767 80.3762 31.6281 82.8196 29.5344C85.263 27.4405 89.793 24.0829 92.8858 22.0732C95.9786 20.0625 101.464 17.1799 105.075 15.6667C108.686 14.1536 114.806 12.2289 118.673 11.3892Z" fill="#EC5315"/>
<path d="M217.459 98.6744C217.459 91.5876 217.745 76.4815 218.094 65.1045C218.441 53.7285 219.007 44.4199 219.349 44.4199C219.69 44.4199 229.686 49.752 241.562 56.269C253.437 62.7859 265.108 69.5648 267.495 71.3331C269.884 73.1014 274.285 77.1569 277.277 80.3445C280.27 83.5321 284.471 88.8966 286.613 92.264C288.756 95.6325 291.782 101.751 293.338 105.861C294.894 109.97 296.639 115.943 297.216 119.133C297.794 122.323 298.266 129.4 298.266 134.861C298.266 141.602 297.643 147.27 296.328 152.521C295.263 156.773 293.704 161.792 292.867 163.673C292.027 165.555 290.51 168.777 289.492 170.833C288.474 172.888 285.459 177.507 282.791 181.096C280.125 184.685 275.376 189.904 272.241 192.692C269.103 195.48 261.231 200.812 254.745 204.54C248.258 208.267 219.89 224.351 191.705 240.281C163.519 256.209 140.233 269.242 139.958 269.242C139.683 269.242 139.525 249.238 139.608 224.787L139.758 180.333L148.066 175.588C152.635 172.979 158.538 169.612 161.183 168.105C163.829 166.599 166.426 165.034 166.955 164.627C167.484 164.221 175.709 159.287 185.233 153.663C194.756 148.04 205.619 141.633 209.373 139.428L216.197 135.418L216.828 123.489C217.176 116.928 217.459 105.762 217.459 98.6744Z" fill="#EC5315"/>
<path d="M56.6172 314.826C55.2575 310.133 55 302.804 55 268.751C55 246.478 55.3863 228.41 55.8578 228.599C56.3293 228.787 75.301 240.212 98.0172 253.99L139.32 279.037L138.985 296.64C138.657 313.879 138.585 314.382 135.497 320.987C133.658 324.921 130.175 329.928 127.139 333.008C124.105 336.083 119.12 339.645 115.19 341.545C109.892 344.108 106.674 344.919 100.176 345.329C94.0842 345.715 90.3174 345.386 85.8855 344.08C82.575 343.105 78.0367 341.217 75.7988 339.884C73.5611 338.552 69.6321 335.243 67.0689 332.533C64.5047 329.821 61.4689 325.985 60.3211 324.007C59.1734 322.028 57.5075 317.898 56.6172 314.826Z" fill="#EC5315"/>
</svg>
